<?xml version="1.0" encoding="UTF-8"?><svg id="a" xmlns="http://www.w3.org/2000/svg" viewBox="0 0 297 297"><defs><style>.b{fill:#00bfbf;}.c{fill:#fff;}</style></defs><rect class="b" width="297" height="297" rx="30" ry="30"/><g><path class="c" d="M228.34,133.38H65.02c-2.05,0-3.72,1.66-3.72,3.72v36.57c0,2.05,1.66,3.72,3.72,3.72H228.34c2.05,0,3.72-1.66,3.72-3.72v-36.57c0-2.05-1.66-3.72-3.72-3.72Zm-.78,35.77c0,1.75-1.42,3.17-3.17,3.17H68.97c-1.75,0-3.17-1.42-3.17-3.17v-27.53c0-1.75,1.42-3.17,3.17-3.17H224.39c1.75,0,3.17,1.42,3.17,3.17v27.53Z"/><path class="c" d="M228.34,188.38H65.02c-2.05,0-3.72,1.66-3.72,3.72v36.57c0,2.05,1.66,3.72,3.72,3.72H228.34c2.05,0,3.72-1.66,3.72-3.72v-36.57c0-2.05-1.66-3.72-3.72-3.72Zm-.78,35.77c0,1.75-1.42,3.17-3.17,3.17H68.97c-1.75,0-3.17-1.42-3.17-3.17v-27.53c0-1.75,1.42-3.17,3.17-3.17H224.39c1.75,0,3.17,1.42,3.17,3.17v27.53Z"/><path class="c" d="M221.18,97.14c-9.94,0-18-8.06-18-18,0-.08,.01-.16,.01-.24H65.02c-2.05,0-3.72,1.66-3.72,3.72v36.57c0,2.05,1.66,3.72,3.72,3.72H228.34c2.05,0,3.72-1.66,3.72-3.72v-25.73c-3.02,2.3-6.79,3.68-10.88,3.68Z"/><circle class="c" cx="221.18" cy="79.14" r="14.52"/></g></svg>